<?xml version="1.0" encoding="utf-8"?>
<!-- Generator: Adobe Illustrator 16.0.4, SVG Export Plug-In . SVG Version: 6.00 Build 0)  -->
<!DOCTYPE svg PUBLIC "-//W3C//DTD SVG 1.1//EN" "http://www.w3.org/Graphics/SVG/1.1/DTD/svg11.dtd">
<svg version="1.1" id="Layer_1" xmlns="http://www.w3.org/2000/svg" xmlns:xlink="http://www.w3.org/1999/xlink" x="0px" y="0px"
	 width="124.078px" height="28.174px" viewBox="0 0 124.078 28.174" enable-background="new 0 0 124.078 28.174"
	 xml:space="preserve">
<g>
	<g>
		<path fill="#1D1D1C" d="M50.826,20.278c0,0.476-0.197,0.881-0.589,1.215s-0.87,0.501-1.428,0.501c-0.29,0-0.579-0.054-0.869-0.158
			c-0.29-0.105-0.539-0.272-0.745-0.501L35.124,7.936v12.343c0,0.476-0.202,0.881-0.605,1.215c-0.404,0.334-0.884,0.501-1.443,0.501
			s-1.035-0.167-1.427-0.501c-0.394-0.334-0.59-0.739-0.59-1.215V2.872c0-0.388,0.134-0.727,0.403-1.017
			c0.27-0.29,0.589-0.492,0.962-0.606c0.373-0.114,0.766-0.128,1.18-0.039c0.413,0.088,0.775,0.299,1.086,0.633l12.102,13.398V1.367
			h4.034V20.278z"/>
		<path fill="#1D1D1C" d="M58.024,20.278c0,0.476-0.201,0.881-0.604,1.215c-0.403,0.334-0.885,0.501-1.443,0.501
			c-0.559,0-1.035-0.167-1.428-0.501c-0.393-0.334-0.59-0.739-0.59-1.215V1.367h4.065V20.278z"/>
		<path fill="#1D1D1C" d="M61.097,21.994V3.082c0-0.475,0.201-0.88,0.605-1.213c0.403-0.335,0.884-0.502,1.442-0.502
			c0.559,0,1.035,0.167,1.428,0.502c0.393,0.333,0.59,0.738,0.59,1.213v15.483h10.461l-1.859,3.429H61.097z"/>
	</g>
	<g>
		<path fill="#1D1D1C" d="M97.652,19.642c0.247,0.511,0.247,0.963,0,1.36c-0.248,0.394-0.602,0.676-1.056,0.843
			c-0.454,0.168-0.937,0.193-1.442,0.079c-0.508-0.114-0.885-0.427-1.133-0.936l-2.079-4.089H81.857l-2.08,4.089
			c-0.248,0.509-0.625,0.821-1.133,0.936C78.139,22.038,74.928,22,74.928,22s0.971-1.848,1.219-2.358l8.906-17.434
			c0.166-0.298,0.398-0.548,0.699-0.751c0.299-0.202,0.677-0.302,1.132-0.302c0.477,0,0.864,0.101,1.164,0.302
			c0.3,0.203,0.532,0.453,0.698,0.751L97.652,19.642z M86.915,7.034l-3.29,6.437h6.548L86.915,7.034z"/>
	</g>
	<g>
		<path fill="#1D1D1C" d="M118.598,20.278c0,0.476-0.195,0.881-0.59,1.215c-0.393,0.334-0.869,0.501-1.427,0.501
			c-0.29,0-0.58-0.054-0.868-0.158c-0.291-0.105-0.539-0.272-0.745-0.501L102.896,7.936v12.343c0,0.476-0.203,0.881-0.605,1.215
			c-0.403,0.334-0.885,0.501-1.443,0.501s-1.033-0.167-1.426-0.501c-0.395-0.334-0.591-0.739-0.591-1.215V2.872
			c0-0.388,0.134-0.727,0.403-1.017c0.27-0.29,0.59-0.492,0.963-0.606c0.372-0.114,0.765-0.128,1.179-0.039
			c0.413,0.088,0.775,0.299,1.085,0.633l12.104,13.398V1.367h4.033V20.278z"/>
	</g>
	<g>
		<path fill="#1D1D1C" d="M33.754,27.282c0,0.113-0.033,0.224-0.098,0.33c-0.065,0.105-0.16,0.2-0.283,0.282
			c-0.123,0.081-0.273,0.149-0.449,0.2c-0.177,0.052-0.376,0.077-0.599,0.077c-0.223,0-0.422-0.025-0.599-0.077
			c-0.175-0.051-0.326-0.119-0.447-0.2c-0.121-0.082-0.214-0.177-0.28-0.282c-0.065-0.106-0.098-0.217-0.098-0.33v-2.279
			c0-0.114,0.033-0.223,0.098-0.33c0.065-0.105,0.159-0.2,0.28-0.282c0.121-0.083,0.272-0.149,0.447-0.2
			c0.177-0.052,0.376-0.077,0.599-0.077c0.223,0,0.422,0.025,0.599,0.077c0.176,0.051,0.326,0.117,0.449,0.2
			c0.123,0.082,0.218,0.177,0.283,0.282c0.065,0.107,0.098,0.216,0.098,0.33V27.282z M33.419,24.966
			c-0.031-0.047-0.075-0.102-0.133-0.162c-0.058-0.06-0.131-0.115-0.219-0.168c-0.087-0.054-0.191-0.098-0.313-0.135
			c-0.122-0.036-0.265-0.055-0.429-0.055c-0.162,0-0.302,0.019-0.424,0.055c-0.122,0.037-0.226,0.081-0.312,0.135
			c-0.088,0.053-0.161,0.108-0.219,0.168c-0.059,0.061-0.103,0.115-0.133,0.162v2.354c0.031,0.047,0.075,0.102,0.133,0.162
			c0.058,0.06,0.13,0.115,0.219,0.168c0.086,0.055,0.191,0.099,0.312,0.135c0.122,0.035,0.263,0.053,0.424,0.053
			c0.164,0,0.307-0.018,0.429-0.053c0.122-0.036,0.226-0.08,0.313-0.135c0.087-0.053,0.161-0.108,0.219-0.168
			c0.058-0.061,0.103-0.115,0.133-0.162V24.966z"/>
		<path fill="#1D1D1C" d="M37.617,27.282c0,0.113-0.032,0.224-0.098,0.33c-0.065,0.105-0.16,0.2-0.282,0.282
			c-0.124,0.081-0.273,0.149-0.45,0.2c-0.176,0.052-0.375,0.077-0.598,0.077c-0.223,0-0.422-0.025-0.599-0.077
			c-0.176-0.051-0.326-0.119-0.448-0.2c-0.121-0.082-0.214-0.177-0.279-0.282c-0.065-0.106-0.098-0.217-0.098-0.33v-3
			c0-0.047,0.016-0.088,0.046-0.121c0.032-0.031,0.071-0.048,0.118-0.048c0.048,0,0.088,0.017,0.122,0.048
			c0.032,0.033,0.049,0.074,0.049,0.121v3.037c0.03,0.047,0.075,0.102,0.133,0.162c0.059,0.06,0.132,0.115,0.219,0.168
			c0.087,0.055,0.191,0.099,0.312,0.135c0.121,0.035,0.263,0.053,0.425,0.053c0.165,0,0.308-0.018,0.429-0.053
			c0.122-0.036,0.226-0.08,0.312-0.135c0.087-0.053,0.161-0.108,0.219-0.168c0.058-0.061,0.103-0.115,0.133-0.162v-3.037
			c0-0.047,0.017-0.088,0.05-0.121c0.033-0.031,0.073-0.048,0.121-0.048c0.047,0,0.087,0.017,0.118,0.048
			c0.03,0.033,0.046,0.074,0.046,0.121V27.282z"/>
		<path fill="#1D1D1C" d="M40.13,24.487l-0.006,3.516c0,0.048-0.015,0.088-0.045,0.121c-0.031,0.031-0.071,0.048-0.12,0.048
			c-0.048,0-0.087-0.017-0.12-0.048c-0.032-0.033-0.049-0.073-0.049-0.121v-3.516h-1.315v-0.334h2.97v0.334H40.13z"/>
		<path fill="#1D1D1C" d="M44.845,27.282c0,0.113-0.032,0.224-0.097,0.33c-0.065,0.105-0.159,0.2-0.28,0.282
			c-0.121,0.081-0.271,0.149-0.447,0.2c-0.176,0.052-0.376,0.077-0.598,0.077c-0.288,0-0.533-0.022-0.735-0.069
			c-0.203-0.047-0.363-0.1-0.482-0.162v-0.354c0.034,0.015,0.088,0.034,0.162,0.062c0.074,0.027,0.163,0.057,0.269,0.085
			c0.107,0.03,0.226,0.054,0.359,0.075c0.134,0.02,0.276,0.029,0.427,0.029c0.161,0,0.302-0.018,0.424-0.053
			c0.121-0.036,0.225-0.08,0.313-0.135c0.087-0.053,0.16-0.108,0.218-0.168c0.059-0.061,0.103-0.115,0.134-0.162v-0.719
			c-0.011-0.021-0.028-0.037-0.052-0.049c-0.023-0.014-0.06-0.027-0.109-0.041c-0.049-0.016-0.117-0.033-0.201-0.052
			c-0.084-0.02-0.188-0.044-0.315-0.075l-0.735-0.174c-0.112-0.025-0.225-0.05-0.338-0.075s-0.215-0.058-0.303-0.095
			c-0.09-0.038-0.163-0.086-0.22-0.145c-0.056-0.059-0.083-0.133-0.083-0.226v-0.667c0-0.114,0.032-0.223,0.097-0.33
			c0.065-0.105,0.159-0.2,0.283-0.282c0.123-0.083,0.272-0.149,0.45-0.2c0.175-0.052,0.375-0.077,0.597-0.077
			c0.284,0,0.528,0.024,0.733,0.069c0.203,0.047,0.366,0.1,0.485,0.162v0.354c-0.034-0.013-0.089-0.033-0.162-0.061
			c-0.073-0.028-0.164-0.056-0.27-0.085c-0.106-0.029-0.226-0.055-0.359-0.075c-0.134-0.02-0.277-0.031-0.427-0.031
			c-0.164,0-0.307,0.019-0.428,0.055c-0.122,0.037-0.227,0.081-0.315,0.135c-0.086,0.053-0.159,0.108-0.215,0.168
			c-0.056,0.061-0.101,0.115-0.131,0.162v0.704c0.01,0.021,0.028,0.038,0.051,0.048c0.024,0.013,0.062,0.026,0.111,0.041
			c0.049,0.017,0.116,0.034,0.198,0.053c0.083,0.019,0.188,0.043,0.319,0.074l0.734,0.17c0.113,0.026,0.225,0.053,0.337,0.076
			c0.11,0.023,0.212,0.056,0.303,0.094c0.09,0.037,0.164,0.084,0.219,0.143c0.054,0.059,0.082,0.135,0.082,0.232V27.282z"/>
		<path fill="#1D1D1C" d="M47.26,24.487l-0.005,3.516c0,0.048-0.016,0.088-0.047,0.121c-0.03,0.031-0.07,0.048-0.118,0.048
			c-0.048,0-0.088-0.017-0.121-0.048c-0.032-0.033-0.049-0.073-0.049-0.121v-3.516h-1.314v-0.334h2.969v0.334H47.26z"/>
		<path fill="#1D1D1C" d="M52.207,27.956c0.018,0.038,0.018,0.076,0.003,0.117c-0.016,0.041-0.042,0.071-0.081,0.088
			c-0.041,0.017-0.08,0.017-0.119,0c-0.041-0.017-0.068-0.044-0.086-0.082l-0.462-1.062h-2.044l-0.458,1.062
			c-0.017,0.038-0.045,0.065-0.087,0.082c-0.041,0.017-0.08,0.017-0.118,0s-0.065-0.047-0.079-0.088
			c-0.016-0.041-0.015-0.079,0.002-0.117l1.617-3.739c0.029-0.069,0.077-0.104,0.146-0.104c0.065,0,0.114,0.034,0.149,0.104
			L52.207,27.956z M50.44,24.658l-0.875,2.023h1.752L50.44,24.658z"/>
		<path fill="#1D1D1C" d="M56.255,28.003c0,0.048-0.017,0.088-0.049,0.121c-0.033,0.031-0.072,0.048-0.121,0.048
			c-0.059,0-0.104-0.022-0.133-0.066l-2.559-3.335v3.232c0,0.048-0.016,0.088-0.048,0.121c-0.033,0.031-0.073,0.048-0.121,0.048
			c-0.048,0-0.087-0.017-0.118-0.048c-0.031-0.033-0.046-0.073-0.046-0.121v-3.726c0-0.055,0.022-0.098,0.066-0.127
			c0.038-0.028,0.079-0.04,0.124-0.034c0.044,0.004,0.08,0.025,0.107,0.063l2.563,3.335v-3.361h0.334V28.003z"/>
		<path fill="#1D1D1C" d="M60.354,26.142c0,0.252-0.031,0.494-0.092,0.733c-0.062,0.237-0.146,0.451-0.251,0.637
			c-0.106,0.187-0.228,0.337-0.366,0.449c-0.136,0.112-0.281,0.17-0.436,0.17h-1.937v-3.978h1.937c0.155,0,0.3,0.059,0.436,0.17
			c0.138,0.113,0.26,0.264,0.366,0.451c0.105,0.186,0.189,0.397,0.251,0.636C60.323,25.648,60.354,25.892,60.354,26.142z
			 M60.001,26.142c0-0.215-0.024-0.412-0.071-0.591c-0.045-0.177-0.104-0.335-0.174-0.472c-0.07-0.137-0.148-0.255-0.232-0.354
			c-0.083-0.099-0.164-0.179-0.243-0.237h-1.675v3.309h1.675c0.079-0.058,0.159-0.135,0.243-0.232
			c0.084-0.098,0.162-0.217,0.232-0.355c0.07-0.139,0.128-0.295,0.174-0.472C59.977,26.56,60.001,26.361,60.001,26.142z"/>
		<path fill="#1D1D1C" d="M61.629,28.003c0,0.048-0.016,0.088-0.048,0.121c-0.033,0.031-0.074,0.048-0.122,0.048
			s-0.087-0.017-0.118-0.048c-0.03-0.033-0.046-0.073-0.046-0.121v-3.85h0.334V28.003z"/>
		<path fill="#1D1D1C" d="M65.877,28.003c0,0.048-0.016,0.088-0.049,0.121c-0.033,0.031-0.072,0.048-0.12,0.048
			c-0.06,0-0.103-0.022-0.134-0.066l-2.559-3.335v3.232c0,0.048-0.016,0.088-0.049,0.121c-0.031,0.031-0.073,0.048-0.121,0.048
			s-0.087-0.017-0.117-0.048c-0.031-0.033-0.047-0.073-0.047-0.121v-3.726c0-0.055,0.022-0.098,0.066-0.127
			c0.038-0.028,0.078-0.04,0.123-0.034c0.045,0.004,0.08,0.025,0.107,0.063l2.564,3.335v-3.361h0.334V28.003z"/>
		<path fill="#1D1D1C" d="M69.674,27.874c-0.062,0.041-0.141,0.08-0.236,0.118s-0.203,0.068-0.321,0.095
			c-0.118,0.025-0.246,0.047-0.382,0.062c-0.139,0.016-0.278,0.022-0.422,0.022c-0.223,0-0.422-0.025-0.598-0.077
			c-0.178-0.051-0.326-0.119-0.448-0.2c-0.122-0.082-0.214-0.177-0.279-0.282c-0.065-0.106-0.099-0.217-0.099-0.33v-2.279
			c0-0.114,0.033-0.223,0.099-0.33c0.065-0.105,0.157-0.2,0.279-0.282c0.122-0.083,0.271-0.149,0.448-0.2
			c0.176-0.052,0.375-0.077,0.598-0.077c0.288,0,0.533,0.024,0.734,0.069c0.201,0.047,0.363,0.1,0.483,0.162v0.354
			c-0.034-0.013-0.089-0.033-0.162-0.061c-0.073-0.028-0.164-0.056-0.271-0.085c-0.105-0.029-0.227-0.055-0.359-0.075
			c-0.134-0.02-0.275-0.031-0.426-0.031c-0.161,0-0.303,0.019-0.424,0.055c-0.123,0.037-0.227,0.081-0.314,0.135
			c-0.086,0.053-0.16,0.108-0.218,0.168c-0.059,0.061-0.103,0.115-0.134,0.162v2.354c0.031,0.047,0.075,0.102,0.134,0.162
			c0.058,0.06,0.132,0.115,0.218,0.168c0.088,0.055,0.191,0.099,0.314,0.135c0.121,0.035,0.263,0.053,0.424,0.053
			c0.226,0,0.428-0.02,0.604-0.061s0.317-0.083,0.424-0.123v-1.346h-0.802c-0.048,0-0.088-0.016-0.121-0.047
			c-0.032-0.031-0.048-0.07-0.048-0.119c0-0.047,0.016-0.088,0.048-0.121c0.033-0.031,0.073-0.047,0.121-0.047h1.136V27.874z"/>
		<path fill="#1D1D1C" d="M72.962,28.003c0,0.048-0.017,0.088-0.048,0.121c-0.033,0.031-0.074,0.048-0.121,0.048
			c-0.049,0-0.088-0.017-0.119-0.048c-0.03-0.033-0.045-0.073-0.045-0.121v-3.85h0.333V28.003z"/>
		<path fill="#1D1D1C" d="M77.211,28.003c0,0.048-0.018,0.088-0.05,0.121c-0.032,0.031-0.072,0.048-0.12,0.048
			c-0.059,0-0.104-0.022-0.135-0.066l-2.559-3.335v3.232c0,0.048-0.015,0.088-0.048,0.121c-0.032,0.031-0.073,0.048-0.12,0.048
			c-0.049,0-0.088-0.017-0.118-0.048c-0.03-0.033-0.046-0.073-0.046-0.121v-3.726c0-0.055,0.021-0.098,0.066-0.127
			c0.037-0.028,0.078-0.04,0.123-0.034c0.044,0.004,0.08,0.025,0.107,0.063l2.563,3.335v-3.361h0.335V28.003z"/>
		<path fill="#1D1D1C" d="M81.31,26.142c0,0.252-0.031,0.494-0.093,0.733c-0.061,0.237-0.146,0.451-0.252,0.637
			c-0.106,0.187-0.228,0.337-0.364,0.449c-0.136,0.112-0.282,0.17-0.437,0.17h-1.937v-3.978h1.937c0.154,0,0.301,0.059,0.437,0.17
			c0.137,0.113,0.258,0.264,0.364,0.451c0.106,0.186,0.191,0.397,0.252,0.636C81.278,25.648,81.31,25.892,81.31,26.142z
			 M80.956,26.142c0-0.215-0.024-0.412-0.07-0.591c-0.046-0.177-0.104-0.335-0.174-0.472c-0.071-0.137-0.148-0.255-0.232-0.354
			c-0.083-0.099-0.166-0.179-0.243-0.237h-1.675v3.309h1.675c0.077-0.058,0.16-0.135,0.243-0.232
			c0.084-0.098,0.161-0.217,0.232-0.355c0.069-0.139,0.128-0.295,0.174-0.472S80.956,26.361,80.956,26.142z"/>
	</g>
	<g>
		<path fill="#1D1D1C" d="M85.076,27.282c0,0.113-0.033,0.224-0.098,0.33c-0.065,0.105-0.159,0.2-0.283,0.282
			c-0.123,0.081-0.271,0.149-0.449,0.2c-0.176,0.052-0.375,0.077-0.599,0.077c-0.222,0-0.421-0.025-0.599-0.077
			c-0.176-0.051-0.325-0.119-0.446-0.2c-0.121-0.082-0.216-0.177-0.28-0.282c-0.065-0.106-0.098-0.217-0.098-0.33v-2.279
			c0-0.114,0.032-0.223,0.098-0.33c0.064-0.105,0.159-0.2,0.28-0.282c0.121-0.083,0.271-0.149,0.446-0.2
			c0.178-0.052,0.377-0.077,0.599-0.077c0.224,0,0.423,0.025,0.599,0.077c0.178,0.051,0.326,0.117,0.449,0.2
			c0.124,0.082,0.218,0.177,0.283,0.282c0.064,0.107,0.098,0.216,0.098,0.33V27.282z M84.742,24.966
			c-0.03-0.047-0.075-0.102-0.135-0.162c-0.057-0.06-0.13-0.115-0.217-0.168c-0.088-0.054-0.193-0.098-0.314-0.135
			c-0.121-0.036-0.265-0.055-0.429-0.055c-0.16,0-0.302,0.019-0.423,0.055c-0.122,0.037-0.227,0.081-0.314,0.135
			c-0.088,0.053-0.159,0.108-0.219,0.168c-0.059,0.061-0.102,0.115-0.133,0.162v2.354c0.031,0.047,0.074,0.102,0.133,0.162
			c0.06,0.06,0.131,0.115,0.219,0.168c0.088,0.055,0.192,0.099,0.314,0.135c0.121,0.035,0.263,0.053,0.423,0.053
			c0.164,0,0.308-0.018,0.429-0.053c0.121-0.036,0.227-0.08,0.314-0.135c0.087-0.053,0.16-0.108,0.217-0.168
			c0.06-0.061,0.104-0.115,0.135-0.162V24.966z"/>
		<path fill="#1D1D1C" d="M88.939,27.282c0,0.113-0.033,0.224-0.098,0.33c-0.066,0.105-0.16,0.2-0.282,0.282
			c-0.124,0.081-0.273,0.149-0.45,0.2c-0.177,0.052-0.376,0.077-0.599,0.077c-0.222,0-0.422-0.025-0.599-0.077
			c-0.176-0.051-0.326-0.119-0.447-0.2c-0.121-0.082-0.215-0.177-0.279-0.282c-0.064-0.106-0.098-0.217-0.098-0.33v-2.279
			c0-0.114,0.033-0.223,0.098-0.33c0.064-0.105,0.158-0.2,0.279-0.282c0.121-0.083,0.271-0.149,0.447-0.2
			c0.177-0.052,0.377-0.077,0.599-0.077c0.223,0,0.422,0.025,0.599,0.077c0.177,0.051,0.326,0.117,0.45,0.2
			c0.122,0.082,0.216,0.177,0.282,0.282c0.064,0.107,0.098,0.216,0.098,0.33V27.282z M88.605,24.966
			c-0.031-0.047-0.076-0.102-0.133-0.162c-0.06-0.06-0.132-0.115-0.219-0.168c-0.088-0.054-0.192-0.098-0.314-0.135
			c-0.121-0.036-0.264-0.055-0.429-0.055c-0.161,0-0.302,0.019-0.423,0.055c-0.121,0.037-0.227,0.081-0.312,0.135
			c-0.088,0.053-0.161,0.108-0.219,0.168c-0.06,0.061-0.104,0.115-0.134,0.162v2.354c0.03,0.047,0.074,0.102,0.134,0.162
			c0.058,0.06,0.131,0.115,0.219,0.168c0.086,0.055,0.191,0.099,0.312,0.135c0.121,0.035,0.262,0.053,0.423,0.053
			c0.165,0,0.308-0.018,0.429-0.053c0.122-0.036,0.227-0.08,0.314-0.135c0.087-0.053,0.159-0.108,0.219-0.168
			c0.057-0.061,0.102-0.115,0.133-0.162V24.966z"/>
	</g>
	<g>
		<path fill="#1D1D1C" d="M92.627,28.131l-1.269-1.654h-1.073v1.526c0,0.048-0.016,0.088-0.049,0.121
			c-0.032,0.031-0.073,0.048-0.121,0.048s-0.088-0.017-0.117-0.048c-0.031-0.033-0.047-0.073-0.047-0.121v-3.85h2.183
			c0.12,0,0.226,0.038,0.314,0.111c0.089,0.074,0.162,0.167,0.22,0.279c0.06,0.114,0.104,0.24,0.132,0.377
			c0.029,0.136,0.044,0.268,0.044,0.395s-0.015,0.258-0.044,0.396c-0.028,0.138-0.072,0.263-0.132,0.376
			c-0.058,0.113-0.131,0.205-0.22,0.279c-0.089,0.073-0.194,0.11-0.314,0.11h-0.349l1.264,1.654H92.627z M92.504,25.315
			c0-0.191-0.027-0.355-0.082-0.493c-0.054-0.137-0.132-0.247-0.232-0.335h-1.904v1.654h1.904c0.101-0.085,0.179-0.195,0.232-0.332
			C92.477,25.671,92.504,25.507,92.504,25.315z"/>
		<path fill="#1D1D1C" d="M98.294,27.94c-0.12,0.062-0.28,0.115-0.483,0.162c-0.201,0.047-0.445,0.069-0.734,0.069
			c-0.222,0-0.422-0.025-0.598-0.077c-0.176-0.051-0.326-0.119-0.447-0.2c-0.121-0.082-0.215-0.177-0.28-0.282
			c-0.065-0.106-0.097-0.217-0.097-0.33v-2.279c0-0.114,0.031-0.223,0.097-0.33c0.065-0.105,0.159-0.2,0.28-0.282
			c0.121-0.083,0.271-0.149,0.447-0.2c0.176-0.052,0.376-0.077,0.598-0.077c0.289,0,0.533,0.024,0.734,0.069
			c0.203,0.047,0.363,0.1,0.483,0.162v0.354c-0.034-0.013-0.088-0.033-0.162-0.061c-0.073-0.028-0.163-0.056-0.269-0.085
			s-0.227-0.055-0.359-0.075c-0.134-0.02-0.276-0.031-0.428-0.031c-0.16,0-0.302,0.019-0.424,0.055
			c-0.121,0.037-0.226,0.081-0.312,0.135c-0.088,0.053-0.16,0.108-0.218,0.168c-0.06,0.061-0.104,0.115-0.134,0.162v2.354
			c0.029,0.047,0.074,0.102,0.134,0.162c0.058,0.06,0.13,0.115,0.218,0.168c0.087,0.055,0.191,0.099,0.312,0.135
			c0.122,0.035,0.264,0.053,0.424,0.053c0.151,0,0.294-0.01,0.428-0.029c0.133-0.021,0.254-0.045,0.359-0.075
			c0.105-0.028,0.195-0.058,0.269-0.085c0.074-0.027,0.128-0.047,0.162-0.062V27.94z"/>
		<path fill="#1D1D1C" d="M99.234,28.131v-3.849c0-0.047,0.016-0.088,0.049-0.121c0.032-0.031,0.072-0.048,0.121-0.048
			c0.048,0,0.087,0.017,0.117,0.048c0.031,0.033,0.047,0.074,0.047,0.121v3.514h2.194v0.335H99.234z"/>
		<path fill="#1D1D1C" d="M102.98,28.003c0,0.048-0.018,0.088-0.049,0.121c-0.033,0.031-0.074,0.048-0.121,0.048
			c-0.049,0-0.088-0.017-0.119-0.048c-0.03-0.033-0.046-0.073-0.046-0.121v-3.85h0.335V28.003z"/>
		<path fill="#1D1D1C" d="M107.607,28.131v-3.237l-1.474,2.559c-0.038,0.059-0.086,0.088-0.145,0.088
			c-0.063,0-0.112-0.029-0.144-0.088l-1.479-2.559v3.237h-0.335v-3.849c0-0.047,0.017-0.088,0.046-0.121
			c0.032-0.031,0.07-0.048,0.119-0.048c0.037,0,0.068,0.011,0.094,0.03c0.026,0.021,0.048,0.046,0.065,0.073l1.633,2.825
			l1.635-2.825c0.017-0.027,0.038-0.052,0.063-0.073c0.026-0.02,0.057-0.03,0.092-0.03c0.047,0,0.086,0.017,0.119,0.048
			c0.032,0.033,0.049,0.074,0.049,0.121v3.849H107.607z"/>
		<path fill="#1D1D1C" d="M112.334,27.956c0.017,0.038,0.019,0.076,0.004,0.117c-0.016,0.041-0.044,0.071-0.08,0.088
			c-0.043,0.017-0.082,0.017-0.121,0s-0.068-0.044-0.085-0.082l-0.463-1.062h-2.044l-0.457,1.062
			c-0.018,0.038-0.047,0.065-0.088,0.082s-0.08,0.017-0.119,0c-0.037-0.017-0.062-0.047-0.079-0.088
			c-0.014-0.041-0.014-0.079,0.003-0.117l1.618-3.739c0.028-0.069,0.075-0.104,0.145-0.104c0.065,0,0.114,0.034,0.148,0.104
			L112.334,27.956z M110.567,24.658l-0.873,2.023h1.751L110.567,24.658z"/>
		<path fill="#1D1D1C" d="M114.091,24.487l-0.005,3.516c0,0.048-0.016,0.088-0.045,0.121c-0.032,0.031-0.071,0.048-0.119,0.048
			c-0.047,0-0.087-0.017-0.12-0.048c-0.034-0.033-0.05-0.073-0.05-0.121v-3.516h-1.314v-0.334h2.971v0.334H114.091z"/>
		<path fill="#1D1D1C" d="M116.264,28.131v-3.808c0-0.047,0.017-0.088,0.05-0.12c0.032-0.032,0.073-0.05,0.12-0.05h2.174v0.334
			h-2.009v1.486h1.839c0.048,0,0.088,0.016,0.121,0.047c0.032,0.033,0.049,0.074,0.049,0.121c0,0.049-0.017,0.088-0.049,0.119
			c-0.033,0.031-0.073,0.047-0.121,0.047h-1.839v1.488h2.009v0.335H116.264z"/>
	</g>
	<g>
		<path fill="none" stroke="#1D1D1C" stroke-width="0.1724" d="M121.584,18.189c0,0-1.379,0-1.379,1.38v1.029
			c0,0,0,1.378,1.379,1.378h1.029c0,0,1.379,0,1.379-1.378v-1.029c0,0,0-1.38-1.379-1.38H121.584z"/>
		<path fill="#1D1D1C" d="M123.312,21.458l-0.794-1.098h0.118c0.094,0,0.174-0.027,0.241-0.082c0.067-0.054,0.121-0.121,0.163-0.203
			c0.043-0.083,0.074-0.174,0.092-0.271c0.02-0.1,0.03-0.191,0.03-0.275c0-0.088-0.011-0.182-0.03-0.279
			c-0.018-0.101-0.049-0.193-0.092-0.277c-0.042-0.085-0.096-0.155-0.163-0.21s-0.147-0.082-0.241-0.082h-1.504v2.632
			c0,0.047,0.016,0.089,0.048,0.123c0.032,0.035,0.07,0.053,0.116,0.053c0.045,0,0.084-0.018,0.117-0.053
			c0.033-0.034,0.05-0.076,0.05-0.123V20.36h0.632l0.797,1.098H123.312z M122.781,19.819c-0.033,0.072-0.074,0.138-0.127,0.192
			h-1.19V19.03h1.19c0.053,0.054,0.094,0.118,0.127,0.196c0.031,0.079,0.047,0.178,0.047,0.302
			C122.828,19.649,122.812,19.745,122.781,19.819"/>
	</g>
	<g>
		<path fill="#D3181B" d="M0.126,15.298c0.624,4.614,3.581,8.484,7.646,10.387V15.298H0.126"/>
		<path fill="#D3181B" d="M7.772,1.267C3.745,3.151,0.805,6.969,0.143,11.525h7.629V1.267"/>
		<path fill="#D3181B" d="M26.81,11.525C25.864,5.006,20.257,0,13.477,0c-0.656,0-1.301,0.048-1.932,0.14v11.385H26.81"/>
		<path fill="#D3181B" d="M11.545,26.812c0.63,0.091,1.275,0.139,1.932,0.139c6.824,0,12.458-5.072,13.349-11.652H11.545V26.812"/>
		<path fill="#FFFFFF" d="M26.81,11.525H11.545V0.14c-1.331,0.19-2.598,0.576-3.773,1.126v10.258H0.143
			C0.051,12.162,0,12.813,0,13.475c0,0.619,0.046,1.227,0.126,1.823h7.646v10.387c1.175,0.55,2.442,0.936,3.773,1.127V15.298h15.281
			c0.082-0.597,0.125-1.204,0.125-1.823C26.952,12.813,26.902,12.162,26.81,11.525"/>
	</g>
</g>
</svg>
